<svg width="1695" height="924" viewBox="0 0 1695 924" fill="none" xmlns="http://www.w3.org/2000/svg">
<path d="M831.333 2.1333C818 3.86664 791.066 10.8 776.933 16.1333C724.533 36.1333 684.533 75.2 669.6 121.333C660.266 149.867 659.2 173.6 665.733 205.333C671.333 232.533 677.6 245.467 690.133 256.533C709.466 273.467 733.066 275.6 770.666 263.733C782.533 260.133 822.933 240.133 846 226.667C950.8 165.333 995.466 146.533 1043.47 143.867C1062.4 142.8 1075.6 144.4 1094.93 150.133C1130 160.533 1151.2 173.067 1220.4 224.533C1287.07 274.133 1324.93 294.4 1356.8 298.133C1381.73 300.933 1398.8 293.867 1409.2 276.533C1412 271.6 1423.07 239.333 1422.13 238.4C1421.87 238.133 1419.2 243.067 1416.27 249.333C1409.73 262.933 1401.07 272.533 1391.6 276.8C1385.73 279.467 1382.53 280 1370.67 279.867C1358.53 279.733 1354.8 279.2 1343.33 275.467C1312.13 265.2 1280.4 245.733 1211.33 194.667C1164.4 159.867 1125.87 136.933 1084.53 119.333C1048.8 104 1022.4 102.267 980.666 112.8C935.6 124.133 896.4 142.4 800 196.8C777.866 209.2 747.333 221.6 731.066 224.8C720 226.8 702 225.867 696 222.8C687.2 218.267 680.266 211.467 676.4 203.6C672.933 196.533 672.666 194.933 672.666 179.333C672.666 165.2 673.2 161.2 675.866 153.333C688.666 116 722.933 84.2667 770.533 65.8667C783.733 60.8 806.266 54.9333 824.666 51.7333C842.133 48.8 895.2 48.5333 912.666 51.2C941.733 55.6 974.266 63.2 997.2 70.8C1013.47 76.2667 1044 88.1333 1055.47 93.3333C1059.87 95.3333 1070 100 1078 103.6C1108.4 117.467 1142.4 136.667 1162.67 151.333C1172.67 158.533 1176.8 160.933 1171.87 156.4C1138.4 126.533 1073.2 76.4 1043.33 57.6C1021.2 43.7333 984.933 25.6 965.333 18.5333C946.133 11.7333 918.8 5.06665 900.533 2.66666C883.866 0.533295 846.933 0.266632 831.333 2.1333Z" fill="white"/>
<path d="M461.333 157.333C461.333 157.6 464.267 159.867 467.867 162.533C471.467 165.067 476.133 170.133 478.267 173.6C481.733 179.467 482 181.067 481.867 192.667C481.733 204.4 480.267 211.067 460.8 287.867C449.333 333.2 439.733 370.8 439.467 371.2C438.8 372.133 424.133 428.133 415.2 463.333C410.133 483.467 405.067 501.733 388.667 560C387.067 565.867 384.933 574.667 384 579.6C379.333 603.467 392.533 627.2 417.333 639.6C428.933 645.467 443.6 649.6 447.467 648.133C449.6 647.2 449.333 646.8 444.8 644.533C432.267 638.4 430 633.067 431.067 611.867C432.4 586.933 441.867 558.267 461.467 519.067C484.667 472.667 512.933 433.867 539.467 411.733C561.2 393.6 580 397.6 580 420.533C580 428.267 575.867 446.8 563.6 493.333C550.267 544 539.2 587.733 536 603.333C530.4 629.333 530.933 674.933 536.933 698.667C546 734.533 561.467 762.267 586.667 787.467C616.933 817.867 653.6 837.2 701.867 848C719.6 851.867 749.333 854.133 749.333 851.6C749.333 850.667 744.667 847.733 739.067 844.8C729.467 840.133 722.667 837.733 696.667 830C684.533 826.267 660.533 814.8 648 806.533C623.067 790.267 601.067 761.2 590.667 731.333C584.133 712.267 581.333 693.6 581.333 669.333C581.333 638.8 583.2 628 599.333 566C627.467 457.467 633.333 431.2 633.333 413.867C633.333 395.067 626.933 376.8 616 364.4C605.333 352.133 585.733 346.133 569.2 350C554.667 353.333 541.867 361.333 526.533 376.667C512.667 390.4 490.4 418.8 479.067 437.333C475.867 442.4 473.333 446 473.333 445.333C473.333 444.533 476.4 432.933 480 419.333C486.8 394.4 489.733 383.067 516.267 280C535.333 206.133 535.467 205.2 521.067 186.267C514.8 178.267 501.6 169.067 490.133 164.8C482.667 162 461.333 156.533 461.333 157.333Z" fill="white"/>
<path d="M1626.67 160.267C1626.67 160.933 1629.07 162.533 1632 163.867C1642 168.667 1647.73 181.867 1646.27 197.067C1645.47 205.333 1631.47 263.467 1613.33 333.333C1608.13 353.067 1598.27 391.467 1591.33 418.667C1565.33 520.133 1567.33 513.067 1560.93 522.933C1546.93 544.533 1526.93 565.733 1514.67 572C1506.4 576.267 1496.4 577.067 1492.53 573.867C1489.07 570.933 1486.67 564.133 1486.67 556.8C1486.67 549.067 1488.53 540.667 1497.33 508C1513.33 448.667 1521.47 418.133 1522.8 411.467C1525.07 400.267 1523.73 387.733 1519.33 379.6C1511.33 364.8 1492.13 351.333 1473.6 347.467C1465.47 345.733 1456 345.467 1456.13 346.933C1456.13 347.6 1458.93 349.733 1462.4 352C1479.2 362.8 1479.07 383.733 1461.87 437.333C1447.73 480.667 1430.8 509.333 1400.8 540.4C1378.4 563.6 1360.67 575.333 1347.87 575.733C1341.87 576 1340.67 575.6 1337.73 572.133C1334.4 568.267 1334.4 567.6 1335.07 554.8C1335.87 540.4 1336.93 536 1357.33 460.667C1374.27 398.4 1374.4 396.533 1365.73 379.2C1358.67 364.933 1343.2 353.2 1325.33 348.267C1315.33 345.467 1305.6 344.4 1304.67 346C1304.27 346.8 1304.4 347.333 1305.2 347.333C1307.73 347.333 1316.13 355.733 1319.07 361.2C1321.6 365.867 1322 368.533 1321.73 380C1321.6 392.267 1320.53 396.933 1309.33 438.667C1287.07 520.533 1282.67 538.4 1281.07 552.933C1278.13 579.2 1283.33 596.267 1298.53 610.267C1307.73 618.933 1315.47 622 1327.33 622C1341.6 622 1356.93 616 1373.33 604C1391.33 590.8 1416.93 563.2 1432.53 540.267C1439.47 530 1439.6 530.533 1436.53 548.667C1435.07 556.8 1434.53 566.267 1434.93 575.867C1435.33 589.067 1435.87 591.6 1439.47 599.333C1447.07 615.467 1458.4 622.533 1476 622.267C1498.27 622 1517.73 609.467 1542.67 579.467C1548.13 572.933 1552.8 568 1553.07 568.533C1553.2 569.2 1551.87 576 1550 583.733C1544.27 607.6 1546 620 1557.2 634.533C1567.87 648.267 1588.4 659.333 1609.33 662.533L1614 663.2L1610.93 660.933C1596 650 1592.53 643.467 1593.73 628.267C1594.27 620 1601.47 588.933 1610.8 554C1616 534.933 1624.27 502.133 1654.13 383.333C1670.67 317.733 1686.53 254.8 1689.47 243.6C1697.6 211.6 1696.4 199.2 1683.87 185.333C1673.47 174.133 1656.13 164.267 1640 160.667C1632.8 159.2 1626.67 158.933 1626.67 160.267Z" fill="white"/>
<path d="M193.067 216.667C138.267 222 91.5999 244.133 55.7332 281.867C30.5332 308.4 14.2666 337.333 5.33325 372.133C-2.13342 401.2 -1.20009 425.867 8.13325 443.467C22.7999 471.067 63.3332 483.6 96.3999 471.067C101.2 469.2 98.7999 467.333 91.4666 467.333C84.2666 467.333 75.9999 463.067 69.5999 456C59.0666 444.667 55.4666 432.667 55.4666 409.333C55.5999 368 76.2666 320.8 108.667 288.133C128.533 268 147.2 254.8 167.2 246.8C187.867 238.4 194.133 237.333 221.333 237.467C245.333 237.467 246.4 237.6 257.467 241.467C299.2 256.133 327.6 289.6 340.533 339.6C347.067 364.267 348.4 378.133 347.6 413.867C346.667 459.333 342.8 483.067 329.867 524C312.4 578.667 279.6 630.667 246.8 655.467C233.867 665.2 208.933 677.467 195.733 680.667C182.267 683.867 146.667 685.733 140.933 683.467C135.6 681.333 132.933 674.133 133.2 662.933C133.333 655.867 141.2 622.4 167.467 518.267C214 332.933 214.533 330.533 216.667 320.4C220.133 304.4 215.6 290.667 202.933 278C194.267 269.333 181.6 261.867 170 258.667C165.6 257.333 160.4 255.467 158.4 254.4C156.267 253.467 154.667 252.933 154.667 253.2C154.667 253.6 157.6 257.733 161.2 262.533C164.8 267.2 168.667 274 169.867 277.6C171.867 283.6 171.867 285.2 170 296C168.8 302.533 166.4 312.933 164.667 319.2C162.933 325.467 157.467 346.267 152.667 365.333C147.733 384.4 140.533 412.267 136.667 427.333C132.8 442.4 120.933 489.2 110.133 531.333C99.4666 573.467 89.4666 612.533 87.9999 618C82.6666 637.6 83.3333 649.467 90.6666 665.067C101.6 688.267 139.467 706.8 186 711.6C235.867 716.8 288.533 693.333 326.4 649.2C343.067 629.733 359.067 602.8 373.333 570C391.733 527.867 402.933 477.2 404.8 427.333C406.133 392 402.933 365.333 393.867 338.133C377.6 288.933 347.467 254 303.867 233.467C290.8 227.333 268 220.4 253.333 218C241.067 216.133 206.8 215.333 193.067 216.667Z" fill="white"/>
<path d="M1058.67 347.467C1071.6 357.733 1074.67 364.4 1074.67 381.067C1074.67 391.6 1073.6 397.333 1064.53 435.333C1050.67 492.933 1049.33 497.067 1036.8 515.867C1013.87 550.4 970.933 575.333 934.8 575.333C919.867 575.333 914.933 574.133 906.4 568.8C901.6 565.733 899.333 562.933 895.867 555.867C891.733 547.6 891.333 545.467 890.933 532.667L890.4 518.533H900.133C912.667 518.4 933.867 511.6 953.867 501.333C986.267 484.8 1007.33 465.6 1018.93 442.267C1023.87 432.4 1024.53 429.867 1025.07 419.467C1025.6 409.2 1025.2 406.8 1022 398.667C1014.93 380.667 996.133 358.933 981.733 351.733C974.8 348.4 972.667 348 960.667 348C948.4 348 946.533 348.4 938.4 352.267C922.667 359.733 906 374.267 889.333 395.333C867.867 422.267 846.8 466.667 840 499.333C836.133 518 833.733 522.8 823.067 534C798.667 559.867 764.533 575.467 732.4 575.333C712 575.2 698.933 567.733 693.2 553.067C689.067 542.267 689.067 521.733 693.2 506.667C704.8 464.933 730.8 420 756.267 397.867C767.333 388.267 777.067 381.333 778.133 382.4C780.4 384.533 780.267 403.067 778 410.667C769.733 439.067 746.4 467.733 695.467 511.467C691.867 514.667 691.6 515.333 693.333 517.333C699.333 524.533 743.6 509.333 773.467 489.867C807.6 467.6 828.533 434 824.133 408.933C821.867 396.4 811.733 377.867 801.2 366.8C773.733 337.867 742.667 340 708.267 373.2C693.467 387.467 674.533 414.133 662.933 437.333C645.067 472.8 636.4 504.267 635.067 537.333C634 567.467 639.067 582.4 656.667 600.133C672.8 616.4 690.667 622.8 717.333 621.6C750.667 620.267 779.333 605.2 813.467 570.933C821.467 563.067 828.933 554.8 830.267 552.667C831.467 550.4 832.933 548.667 833.467 548.667C833.867 548.667 834.667 551.867 835.067 555.733C837.733 578.133 851.067 600 868.533 610.533C883.2 619.333 891.467 621.333 913.333 621.333C931.733 621.333 933.333 621.067 945.333 616.933C970.8 608 988.4 596 1016.27 568.267C1032.8 551.867 1035.73 549.333 1033.87 553.6C1025.73 572.267 1022.53 592.267 1025.87 603.867C1031.87 624.267 1047.47 638.933 1072.8 648.133C1085.33 652.667 1094.67 654.4 1088.67 651.067C1083.07 648 1074.8 637.867 1073.2 632.267C1064.4 599.733 1102.93 504.667 1148 447.867C1177.33 410.933 1200.4 395.333 1214.67 402.667C1220.53 405.733 1221.87 409.333 1221.73 422C1221.6 431.2 1220.27 438.533 1214.13 462C1210 477.733 1201.47 510.8 1195.07 535.333C1183.87 577.733 1183.33 580.667 1183.33 594C1183.33 611.467 1185.87 617.467 1198.53 630C1211.6 642.8 1232 652.267 1244.13 651.067L1248.67 650.667L1242.4 647.733C1235.47 644.533 1232.13 639.6 1230.53 630C1228.8 619.467 1230.93 608.133 1242.93 563.333C1251.33 531.733 1268.4 462.8 1271.47 448C1276.27 425.067 1276.53 400.4 1272.27 387.467C1260.67 352 1224.13 338.8 1191.33 358.267C1173.47 368.933 1148.4 396.267 1126.13 429.2C1120.4 437.867 1115.47 444.533 1115.2 444.267C1114.8 444 1116.8 435.333 1119.33 425.2C1125.33 402.4 1125.33 391.067 1119.47 379.467C1113.07 366.933 1097.47 354.533 1081.87 349.6C1073.87 347.067 1062.27 344.667 1058.27 344.667C1055.33 344.8 1055.33 344.8 1058.67 347.467ZM980.533 391.2C982.933 413.067 967.467 441.867 934.667 475.867C920.533 490.667 893.067 513.733 892.267 511.6C892.133 510.933 894.533 502.267 897.733 492.533C910.667 453.2 933.2 417.867 960.4 394.4C965.733 389.733 971.733 385.2 974 384.133C978.667 381.733 979.467 382.667 980.533 391.2Z" fill="white"/>
<path d="M1207.33 683.467C1146.13 687.067 1069.47 710.933 940 766.4C872.8 795.2 845.333 806.133 825.867 812C819.333 814 813.467 816.133 812.933 816.667C811.6 817.733 829.867 825.333 838.667 827.2C842 828 846.8 828.667 849.333 828.667C855.333 828.667 884.133 818.667 937.333 798C1059.2 750.8 1104.53 736.533 1166.53 725.733C1186.27 722.4 1194.67 721.6 1219.73 721.067C1252 720.267 1265.6 721.467 1285.33 726.667C1304.53 731.733 1318.67 738.267 1330.4 747.6C1338 753.733 1348 766.933 1348 771.067C1348 781.333 1330.8 802.8 1313.6 813.733C1281.07 834.667 1224.4 854.133 1170 863.333C1126.4 870.667 1109.2 871.867 1050.67 872C991.333 872 975.867 870.933 930 863.867C829.2 848.133 715.467 807.333 659.467 766.4C655.067 763.333 650.8 760.667 650 760.667C647.867 760.8 670 781.733 684.267 793.067C712.933 815.733 737.467 830.933 778 850.933C844 883.467 913.467 904.933 992 917.2C1039.33 924.667 1106.4 926.133 1152.67 920.8C1261.6 908.267 1334.27 872.933 1356.53 821.6C1360.53 812.267 1360.67 811.333 1360.67 792.667C1360.67 770.4 1357.33 752.8 1350.27 738C1344.67 726.4 1328.27 710 1314.67 702.533C1287.07 687.467 1250.13 680.933 1207.33 683.467Z" fill="white"/>
</svg>
